<svg width="113" height="229" viewBox="0 0 113 229" fill="none" xmlns="http://www.w3.org/2000/svg">
<path d="M1.98483e-05 228.76V207.48L57.68 117.6C61.9734 110.88 65.8934 104.627 69.44 98.84C73.1734 93.0533 76.16 86.9867 78.4 80.64C80.8267 74.1067 82.04 66.64 82.04 58.24C82.04 47.7867 80.36 39.5733 77 33.6C73.64 27.6267 67.76 24.64 59.36 24.64C52.2667 24.64 46.76 26.6 42.84 30.52C38.92 34.44 36.2134 39.5733 34.72 45.92C33.2267 52.2667 32.48 59.08 32.48 66.36V73.92H2.52002V66.08C2.52002 52.4533 4.29335 40.7867 7.84002 31.08C11.5734 21.1867 17.4534 13.5333 25.48 8.12C33.6934 2.70667 44.52 9.53674e-07 57.96 9.53674e-07C76.2534 9.53674e-07 89.88 5.22667 98.84 15.68C107.8 25.9467 112.28 40.2267 112.28 58.52C112.28 68.2267 111.067 76.72 108.64 84C106.4 91.28 103.413 98.0933 99.68 104.44C95.9467 110.787 91.84 117.32 87.36 124.04L35.28 203.56H106.96V228.76H1.98483e-05Z" fill="#F2F2F2"/>
</svg>
