<svg width="112" height="232" viewBox="0 0 112 232" fill="none" xmlns="http://www.w3.org/2000/svg">
<path d="M55.4401 231.28C43.1201 231.28 32.8534 228.947 24.6401 224.28C16.4267 219.613 10.2667 212.893 6.16005 204.12C2.05338 195.347 4.96209e-05 184.987 4.96209e-05 173.04V165.48H29.6801C29.6801 166.227 29.6801 167.067 29.6801 168C29.6801 168.747 29.6801 169.587 29.6801 170.52C29.8667 177.24 30.6134 183.307 31.9201 188.72C33.4134 194.133 35.9334 198.427 39.4801 201.6C43.2134 204.773 48.5334 206.36 55.4401 206.36C62.7201 206.36 68.2267 204.68 71.9601 201.32C75.6934 197.773 78.2134 192.827 79.52 186.48C80.8267 180.133 81.4801 172.853 81.4801 164.64C81.4801 152.693 79.2401 142.987 74.7601 135.52C70.4667 127.867 62.8134 123.667 51.8001 122.92C51.2401 122.733 50.4934 122.64 49.5601 122.64C48.8134 122.64 48.1601 122.64 47.6001 122.64V92.68C48.1601 92.68 48.8134 92.68 49.5601 92.68C50.3067 92.68 50.9601 92.68 51.5201 92.68C62.1601 92.3067 69.8134 89.5067 74.4801 84.28C79.1467 79.0533 81.4801 70.3733 81.4801 58.24C81.4801 47.9733 79.7067 39.76 76.1601 33.6C72.8 27.44 65.9867 24.36 55.7201 24.36C45.4534 24.36 38.6401 27.8133 35.2801 34.72C31.92 41.44 30.0534 50.12 29.6801 60.76C29.6801 61.5067 29.6801 62.3467 29.6801 63.28C29.6801 64.0267 29.6801 64.7733 29.6801 65.52H4.96209e-05V57.96C4.96209e-05 45.8267 2.05338 35.4667 6.16005 26.88C10.2667 18.2933 16.4267 11.6667 24.6401 6.99999C33.0401 2.33333 43.4001 9.53674e-07 55.7201 9.53674e-07C68.2267 9.53674e-07 78.5867 2.33333 86.8001 6.99999C95.0134 11.6667 101.173 18.3867 105.28 27.16C109.387 35.7467 111.44 46.1067 111.44 58.24C111.44 71.8667 108.453 82.7867 102.48 91C96.6934 99.2133 88.8534 104.813 78.9601 107.8C85.8667 109.853 91.6534 113.4 96.32 118.44C101.173 123.48 104.907 129.92 107.52 137.76C110.133 145.413 111.44 154.373 111.44 164.64C111.44 178.08 109.573 189.84 105.84 199.92C102.107 209.813 96.1334 217.56 87.92 223.16C79.7067 228.573 68.88 231.28 55.4401 231.28Z" fill="#F2F2F2"/>
</svg>
