<svg width="23" height="23" viewBox="0 0 23 23" fill="none" xmlns="http://www.w3.org/2000/svg">
<g clip-path="url(#clip0_32950_168)">
<mask id="mask0_32950_168" style="mask-type:luminance" maskUnits="userSpaceOnUse" x="0" y="0" width="23" height="23">
<path d="M11.5 0C17.848 0 23 5.152 23 11.5C23 17.848 17.848 23 11.5 23C5.152 23 0 17.848 0 11.5C0 5.152 5.152 0 11.5 0Z" fill="white"/>
</mask>
<g mask="url(#mask0_32950_168)">
<path d="M23 0H0V23H23V0Z" fill="#68B738"/>
<path fill-rule="evenodd" clip-rule="evenodd" d="M6.4402 12.4469L5.80214 9.93865L10.0706 7.07837L15.1751 7.4304L15.9231 9.87264L39.2454 34.9551L2.78784 46.0002L6.4402 12.4469Z" fill="#EF6251"/>
<path fill-rule="evenodd" clip-rule="evenodd" d="M9.76268 5.91186C5.91231 6.94597 3.40406 10.0483 4.17414 12.8425C4.92221 15.6368 8.64057 17.067 12.491 16.0549C16.3413 15.0208 18.8496 11.9185 18.0795 9.12418C17.3314 6.3079 13.6131 4.87776 9.76268 5.91186ZM10.4007 8.2661C13.063 7.56203 15.4172 8.44211 15.7693 9.71824C16.1213 10.9944 14.5152 12.9526 11.8529 13.6566C9.19063 14.3607 6.8364 13.4806 6.48436 12.2045C6.15433 10.9504 7.73849 8.97016 10.4007 8.2661Z" fill="white"/>
</g>
</g>
<defs>
<clipPath id="clip0_32950_168">
<rect width="23" height="23" fill="white"/>
</clipPath>
</defs>
</svg>
