<svg width="23" height="23" viewBox="0 0 23 23" fill="none" xmlns="http://www.w3.org/2000/svg">
<g clip-path="url(#clip0_32950_201)">
<path d="M0 11.04C0 5.83568 0 3.23354 1.61677 1.61677C3.23354 0 5.83568 0 11.04 0H11.96C17.1643 0 19.7664 0 21.3832 1.61677C23 3.23354 23 5.83568 23 11.04V11.96C23 17.1643 23 19.7664 21.3832 21.3832C19.7664 23 17.1643 23 11.96 23H11.04C5.83568 23 3.23354 23 1.61677 21.3832C0 19.7664 0 17.1643 0 11.96V11.04Z" fill="#68B738"/>
<path d="M12.238 16.5696C6.99588 16.5696 4.00593 12.9758 3.88135 6.99585H6.50718C6.59343 11.385 8.52922 13.2442 10.0626 13.6275V6.99585H12.5351V10.7813C14.0493 10.6183 15.64 8.89335 16.1766 6.99585H18.6492C18.2371 9.33418 16.5121 11.0592 15.2854 11.7684C16.5121 12.3433 18.4768 13.8479 19.2243 16.5696H16.5025C15.9179 14.7488 14.4614 13.34 12.5351 13.1483V16.5696H12.238Z" fill="white"/>
</g>
<defs>
<clipPath id="clip0_32950_201">
<rect width="23" height="23" fill="white"/>
</clipPath>
</defs>
</svg>
